# Blender 5.1.0
# www.blender.org
mtllib nest collision.mtl
o Plane
v -0.537250 -0.536022 0.531205
v 2.862350 -1.035984 0.632916
v -0.537250 -0.536022 -1.468795
v 2.862350 -1.035984 -1.367084
v 4.888493 -0.609976 -1.999537
v 4.581650 -0.504691 -3.973053
v 3.589613 -0.781304 -1.808164
v 3.298425 -0.781304 -3.786853
v -1.285061 -1.166333 -1.707498
v -1.285061 1.166333 -1.707498
v -1.124778 -1.166333 -1.691712
v -1.124778 1.166333 -1.691712
v -0.970654 -1.166333 -1.644959
v -0.970654 1.166333 -1.644959
v -0.899923 -1.166333 -1.378572
v -0.899923 1.166333 -1.378572
v -0.189244 -1.252954 -1.112491
v -0.189244 1.079712 -1.112491
v -0.601938 -1.166333 -1.342361
v -0.526015 -1.166333 -1.200320
v -0.479263 -1.166333 -1.046197
v -0.463476 -1.166333 -0.885913
v -0.479263 -1.166333 -0.725630
v -0.526015 -1.166333 -0.571506
v -0.601938 -1.166333 -0.429465
v -0.819076 -1.175086 -0.232484
v -0.819076 1.157580 -0.232484
v -0.970654 -1.166333 -0.126868
v -0.970654 1.166333 -0.126868
v -1.124778 -1.166333 -0.080115
v -1.124778 1.166333 -0.080115
v -1.285061 -1.166333 -0.064328
v -1.285061 1.166333 -0.064328
v -1.445344 -1.166333 -0.080115
v -1.445344 1.166333 -0.080115
v -1.599468 -1.166333 -0.126868
v -1.599468 1.166333 -0.126868
v -1.741509 -1.166333 -0.202790
v -1.741509 1.166333 -0.202790
v -1.866009 -1.166333 -0.304965
v -1.866009 1.166333 -0.304965
v -1.968184 -1.166333 -0.429465
v -1.968184 1.166333 -0.429465
v -2.044106 -1.166333 -0.571506
v -2.044106 1.166333 -0.571506
v -2.090860 -1.166333 -0.725630
v -2.090860 1.166333 -0.725630
v -2.106646 -1.166333 -0.885913
v -2.106646 1.166333 -0.885913
v -2.090860 -1.166333 -1.046197
v -2.090860 1.166333 -1.046197
v -2.044106 -1.166333 -1.200320
v -2.044106 1.166333 -1.200320
v -1.968184 -1.166333 -1.342361
v -1.968184 1.166333 -1.342361
v -1.866009 -1.166333 -1.466861
v -1.866009 1.166333 -1.466861
v -1.741509 -1.166333 -1.569036
v -1.741509 1.166333 -1.569036
v -1.599468 -1.166333 -1.644959
v -1.599468 1.166333 -1.644959
v -1.445344 -1.166333 -1.691712
v -1.445344 1.166333 -1.691712
v 0.703672 -1.252954 -1.488795
v 0.703672 1.079712 -1.488795
v 1.313354 -1.252954 -1.717019
v 1.313354 1.079712 -1.717019
v 2.137134 -1.252954 -2.177371
v 2.137134 1.079712 -2.177371
v 2.802243 -1.252954 -2.901166
v 2.802243 1.079712 -2.901166
v 3.060895 -1.252954 -3.308063
v 3.060895 1.079712 -3.308063
v 3.651016 -1.252954 -3.252637
v 3.651016 1.079712 -3.252637
v 4.061818 -1.252954 -3.366749
v 4.061818 1.079712 -3.366749
v 4.485662 -1.252954 -3.363488
v 4.485662 1.079712 -3.363488
v 4.821476 -1.252954 -3.396091
v 4.821476 1.079712 -3.396091
v 5.114437 -1.252954 -3.632714
v 5.114437 1.079712 -3.632714
v 5.570780 -1.252954 -3.700320
v 5.570780 1.079712 -3.700320
v 5.936981 -1.252954 -3.565107
v 5.936981 1.079712 -3.565107
v 6.263745 -1.252954 -3.322851
v 6.263745 1.079712 -3.322851
v 6.348253 -1.252954 -3.018623
v 6.348253 1.079712 -3.018623
v 6.291914 -1.252954 -2.601717
v 6.291914 1.079712 -2.601717
v 5.998954 -1.252954 -2.201712
v 5.998954 1.079712 -2.201712
v 5.480639 -1.252954 -2.105937
v 5.480639 1.079712 -2.105937
v 4.917253 -1.252954 -2.365094
v 4.917253 1.079712 -2.365094
v 4.613024 -1.252954 -2.545378
v 4.613024 1.079712 -2.545378
v 4.111610 -1.252954 -2.691858
v 4.111610 1.079712 -2.691858
v 3.559492 -1.252954 -2.691858
v 3.559492 1.079712 -2.691858
v 3.155957 -1.254478 -2.388540
v 3.155957 1.078188 -2.388540
v 2.689473 -1.254478 -1.874732
v 2.689473 1.078188 -1.874732
v 2.317638 -1.254478 -1.543460
v 2.317638 1.078188 -1.543460
v 2.763840 -1.254478 -1.131062
v 2.763840 1.078188 -1.131062
v 3.396636 -1.254478 -0.790325
v 3.396636 1.078188 -0.790325
v 5.814240 -1.254478 0.767326
v 5.814240 1.078188 0.767326
v 6.730982 -1.254478 1.051272
v 6.730982 1.078188 1.051272
v 7.818093 -1.254478 0.937694
v 7.818093 1.078188 0.937694
v 8.799738 -1.254478 0.580732
v 8.799738 1.078188 0.580732
v 9.562338 -1.254478 -0.279221
v 9.562338 1.078188 -0.279221
v 10.162683 -1.254478 -1.268979
v 10.162683 1.078188 -1.268979
v 10.917170 -1.254478 -1.918000
v 10.917170 1.078188 -1.918000
v 11.833912 -1.254478 -2.201946
v 11.833912 1.078188 -2.201946
v 12.458595 -1.254478 -2.786066
v 12.458595 1.078188 -2.786066
v 13.075166 -1.254478 -2.696825
v 13.075166 1.078188 -2.696825
v 13.553819 -1.254478 -2.250623
v 13.553819 1.078188 -2.250623
v 13.651172 -1.254478 -1.950451
v 13.651172 1.078188 -1.950451
v 13.407788 -1.254478 -1.366332
v 13.407788 1.078188 -1.366332
v 12.985925 -1.254478 -1.017483
v 12.985925 1.078188 -1.017483
v 12.272001 -1.254478 -1.220302
v 12.272001 1.078188 -1.220302
v 11.825799 -1.254478 -1.309542
v 11.825799 1.078188 -1.309542
v 11.038860 -1.254478 -0.968806
v 11.038860 1.078188 -0.968806
v 10.406065 -1.254478 -0.214319
v 10.406065 1.078188 -0.214319
v 9.967976 -1.254478 0.402251
v 9.967976 1.078188 0.402251
v 9.870623 -1.254478 0.872792
v 9.870623 1.078188 0.872792
v 10.552095 -1.254478 1.221640
v 10.552095 1.078188 1.221640
v 11.574304 -1.254478 1.943677
v 11.574304 1.078188 1.943677
v 12.620851 -1.254478 2.511570
v 12.620851 1.078188 2.511570
v 13.764750 -1.254478 2.941547
v 13.764750 1.078188 2.941547
v 14.957327 -1.254478 2.998336
v 14.957327 1.078188 2.998336
v 15.484656 -1.254478 2.608924
v 15.484656 1.078188 2.608924
v 15.841619 -1.254478 2.130270
v 15.841619 1.078188 2.130270
v 16.393286 -1.254478 1.943677
v 16.393286 1.078188 1.943677
v 16.839489 -1.254478 1.992354
v 16.839489 1.078188 1.992354
v 17.253241 -1.254478 2.349315
v 17.253241 1.078188 2.349315
v 17.277578 -1.254478 2.957773
v 17.277578 1.078188 2.957773
v 17.026083 -1.254478 3.517554
v 17.026083 1.078188 3.517554
v 16.401400 -1.254478 3.906966
v 16.401400 1.078188 3.906966
v 15.687476 -1.254478 3.493215
v 15.687476 1.078188 3.493215
v 15.273726 -1.254478 3.550004
v 15.273726 1.078188 3.550004
v 14.624704 -1.254478 3.971868
v 14.624704 1.078188 3.971868
v 13.748526 -1.254478 3.890740
v 13.748526 1.078188 3.890740
v 12.418032 -1.254478 3.517553
v 12.418032 1.078188 3.517553
v 11.639207 -1.254478 3.160592
v 11.639207 1.078188 3.160592
v 10.333051 -1.254478 2.235736
v 10.333051 1.078188 2.235736
v 9.538000 -1.254478 1.821985
v 9.538000 1.078188 1.821985
v 9.059347 -1.254478 1.635392
v 9.059347 1.078188 1.635392
v 7.550373 -1.254478 1.846324
v 7.550373 1.078188 1.846324
v 6.730983 -1.254478 1.959902
v 6.730983 1.078188 1.959902
v 5.725000 -1.254478 1.830098
v 5.725000 1.078188 1.830098
v 4.483747 -1.254478 1.075611
v 4.483747 1.078188 1.075611
v 3.128916 -1.254478 0.093966
v 3.128916 1.078188 0.093966
v 2.171609 -1.254478 -0.425251
v 2.171609 1.078188 -0.425251
v 1.327882 -1.254478 -0.619957
v 1.327882 1.078188 -0.619957
v 0.454111 -1.254478 -0.486283
v 0.454111 1.078188 -0.486283
vn 0.1455 0.9894 -0.0000
vn -0.1635 0.9852 0.0510
vn 0.0980 -0.0000 -0.9952
vn 0.2903 -0.0000 -0.9569
vn 0.9665 -0.0000 -0.2566
vn 0.3506 -0.0000 -0.9365
vn 0.4715 -0.0000 0.8819
vn 0.2903 -0.0000 0.9569
vn 0.0980 -0.0000 0.9952
vn -0.0980 -0.0000 0.9952
vn -0.2903 -0.0000 0.9569
vn -0.4714 -0.0000 0.8819
vn -0.6344 -0.0000 0.7730
vn -0.7730 -0.0000 0.6344
vn -0.8819 -0.0000 0.4714
vn -0.9569 -0.0000 0.2903
vn -0.9952 -0.0000 0.0980
vn -0.9952 -0.0000 -0.0980
vn -0.9569 -0.0000 -0.2903
vn -0.8819 -0.0000 -0.4714
vn -0.7730 -0.0000 -0.6344
vn -0.6344 -0.0000 -0.7730
vn -0.4714 -0.0000 -0.8819
vn -0.2903 -0.0000 -0.9569
vn -0.0980 -0.0000 -0.9952
vn -0.3884 -0.0000 -0.9215
vn -0.3506 -0.0000 -0.9365
vn -0.4878 -0.0000 -0.8729
vn -0.7363 -0.0000 -0.6766
vn -0.8439 -0.0000 -0.5365
vn 0.0935 -0.0000 -0.9956
vn -0.2676 -0.0000 -0.9635
vn 0.0077 -0.0000 -1.0000
vn -0.0966 -0.0000 -0.9953
vn -0.6283 -0.0000 -0.7779
vn -0.1465 -0.0000 -0.9892
vn 0.3464 -0.0000 -0.9381
vn 0.5956 -0.0000 -0.8033
vn 0.9635 -0.0000 -0.2676
vn 0.9910 -0.0000 0.1339
vn 0.8068 -0.0000 0.5909
vn 0.1817 -0.0000 0.9834
vn -0.4179 -0.0000 0.9085
vn -0.5098 -0.0000 0.8603
vn -0.2804 -0.0000 0.9599
vn -0.0000 -0.0000 1.0000
vn 0.6008 -0.0000 0.7994
vn 0.7404 -0.0000 0.6722
vn 0.6652 -0.0000 0.7467
vn 0.6787 -0.0000 -0.7344
vn 0.4741 -0.0000 -0.8805
vn 0.5416 -0.0000 -0.8406
vn 0.2959 -0.0000 -0.9552
vn -0.1039 -0.0000 -0.9946
vn -0.3417 -0.0000 -0.9398
vn -0.7482 -0.0000 -0.6635
vn -0.8550 -0.0000 -0.5186
vn -0.6521 -0.0000 -0.7581
vn -0.2959 -0.0000 -0.9552
vn -0.6830 -0.0000 -0.7304
vn 0.1432 -0.0000 -0.9897
vn 0.6819 -0.0000 -0.7315
vn 0.9512 -0.0000 -0.3085
vn 0.9231 -0.0000 0.3846
vn 0.6373 -0.0000 0.7706
vn -0.2733 -0.0000 0.9619
vn -0.1961 -0.0000 0.9806
vn 0.3973 -0.0000 0.9177
vn 0.7662 -0.0000 0.6426
vn 0.8152 -0.0000 0.5792
vn 0.9793 -0.0000 0.2026
vn 0.4557 -0.0000 -0.8901
vn 0.5769 -0.0000 -0.8168
vn 0.4769 -0.0000 -0.8789
vn 0.3519 -0.0000 -0.9361
vn 0.0476 -0.0000 -0.9989
vn -0.5940 -0.0000 -0.8044
vn -0.8016 -0.0000 -0.5978
vn -0.3204 -0.0000 -0.9473
vn 0.1084 -0.0000 -0.9941
vn 0.6532 -0.0000 -0.7572
vn 0.9992 -0.0000 -0.0400
vn 0.9122 -0.0000 0.4098
vn 0.5290 -0.0000 0.8486
vn -0.5014 -0.0000 0.8652
vn 0.1360 -0.0000 0.9907
vn 0.5450 -0.0000 0.8384
vn -0.0922 -0.0000 0.9957
vn -0.2701 -0.0000 0.9628
vn -0.4167 -0.0000 0.9091
vn -0.5779 -0.0000 0.8161
vn -0.4616 -0.0000 0.8871
vn -0.3632 -0.0000 0.9317
vn 0.1384 -0.0000 0.9904
vn 0.1373 -0.0000 0.9905
vn -0.1280 -0.0000 0.9918
vn -0.5194 -0.0000 0.8545
vn -0.5867 -0.0000 0.8098
vn -0.4768 -0.0000 0.8790
vn -0.2249 -0.0000 0.9744
vn 0.1512 -0.0000 0.9885
vn 0.1746 -0.0000 0.9846
vt 0.000000 0.000000
vt 1.000000 0.000000
vt 1.000000 1.000000
vt 0.000000 1.000000
vt 1.000000 0.500000
vt 0.968750 1.000000
vt 0.968750 0.500000
vt 0.937500 1.000000
vt 0.937500 0.500000
vt 0.906250 1.000000
vt 0.906250 0.500000
vt 0.875000 1.000000
vt 0.875000 0.500000
vt 0.593750 0.500000
vt 0.593750 1.000000
vt 0.562500 1.000000
vt 0.562500 0.500000
vt 0.531250 1.000000
vt 0.531250 0.500000
vt 0.500000 1.000000
vt 0.500000 0.500000
vt 0.468750 1.000000
vt 0.468750 0.500000
vt 0.437500 1.000000
vt 0.437500 0.500000
vt 0.406250 1.000000
vt 0.406250 0.500000
vt 0.375000 1.000000
vt 0.375000 0.500000
vt 0.343750 1.000000
vt 0.343750 0.500000
vt 0.312500 1.000000
vt 0.312500 0.500000
vt 0.281250 1.000000
vt 0.281250 0.500000
vt 0.250000 1.000000
vt 0.250000 0.500000
vt 0.218750 1.000000
vt 0.218750 0.500000
vt 0.187500 1.000000
vt 0.187500 0.500000
vt 0.156250 1.000000
vt 0.156250 0.500000
vt 0.125000 1.000000
vt 0.125000 0.500000
vt 0.093750 1.000000
vt 0.093750 0.500000
vt 0.062500 1.000000
vt 0.062500 0.500000
vt 0.031250 1.000000
vt 0.031250 0.500000
vt 0.000000 0.500000
s 0
usemtl 
f 1/1/1 2/2/1 4/3/1 3/4/1
f 5/1/2 6/2/2 8/3/2 7/4/2
usemtl Material.002
f 9/5/3 10/3/3 12/6/3 11/7/3
f 11/7/4 12/6/4 14/8/4 13/9/4
f 13/9/5 14/8/5 16/10/5 15/11/5
f 15/11/6 16/10/6 18/12/6 17/13/6
f 26/14/7 27/15/7 29/16/7 28/17/7
f 28/17/8 29/16/8 31/18/8 30/19/8
f 30/19/9 31/18/9 33/20/9 32/21/9
f 32/21/10 33/20/10 35/22/10 34/23/10
f 34/23/11 35/22/11 37/24/11 36/25/11
f 36/25/12 37/24/12 39/26/12 38/27/12
f 38/27/13 39/26/13 41/28/13 40/29/13
f 40/29/14 41/28/14 43/30/14 42/31/14
f 42/31/15 43/30/15 45/32/15 44/33/15
f 44/33/16 45/32/16 47/34/16 46/35/16
f 46/35/17 47/34/17 49/36/17 48/37/17
f 48/37/18 49/36/18 51/38/18 50/39/18
f 50/39/19 51/38/19 53/40/19 52/41/19
f 52/41/20 53/40/20 55/42/20 54/43/20
f 54/43/21 55/42/21 57/44/21 56/45/21
f 56/45/22 57/44/22 59/46/22 58/47/22
f 58/47/23 59/46/23 61/48/23 60/49/23
f 60/49/24 61/48/24 63/50/24 62/51/24
f 62/51/25 63/50/25 10/4/25 9/52/25
f 17/13/26 18/12/26 65/12/26 64/13/26
f 64/13/27 65/12/27 67/12/27 66/13/27
f 66/13/28 67/12/28 69/12/28 68/13/28
f 68/13/29 69/12/29 71/12/29 70/13/29
f 70/13/30 71/12/30 73/12/30 72/13/30
f 72/13/31 73/12/31 75/12/31 74/13/31
f 74/13/32 75/12/32 77/12/32 76/13/32
f 76/13/33 77/12/33 79/12/33 78/13/33
f 78/13/34 79/12/34 81/12/34 80/13/34
f 80/13/35 81/12/35 83/12/35 82/13/35
f 82/13/36 83/12/36 85/12/36 84/13/36
f 84/13/37 85/12/37 87/12/37 86/13/37
f 86/13/38 87/12/38 89/12/38 88/13/38
f 88/13/39 89/12/39 91/12/39 90/13/39
f 90/13/40 91/12/40 93/12/40 92/13/40
f 92/13/41 93/12/41 95/12/41 94/13/41
f 94/13/42 95/12/42 97/12/42 96/13/42
f 96/13/43 97/12/43 99/12/43 98/13/43
f 98/13/44 99/12/44 101/12/44 100/13/44
f 100/13/45 101/12/45 103/12/45 102/13/45
f 102/13/46 103/12/46 105/12/46 104/13/46
f 104/13/47 105/12/47 107/12/47 106/13/47
f 106/13/48 107/12/48 109/12/48 108/13/48
f 108/13/49 109/12/49 111/12/49 110/13/49
f 110/13/50 111/12/50 113/12/50 112/13/50
f 112/13/51 113/12/51 115/12/51 114/13/51
f 114/13/52 115/12/52 117/12/52 116/13/52
f 116/13/53 117/12/53 119/12/53 118/13/53
f 118/13/54 119/12/54 121/12/54 120/13/54
f 120/13/55 121/12/55 123/12/55 122/13/55
f 122/13/56 123/12/56 125/12/56 124/13/56
f 124/13/57 125/12/57 127/12/57 126/13/57
f 126/13/58 127/12/58 129/12/58 128/13/58
f 128/13/59 129/12/59 131/12/59 130/13/59
f 130/13/60 131/12/60 133/12/60 132/13/60
f 132/13/61 133/12/61 135/12/61 134/13/61
f 134/13/62 135/12/62 137/12/62 136/13/62
f 136/13/63 137/12/63 139/12/63 138/13/63
f 138/13/64 139/12/64 141/12/64 140/13/64
f 140/13/65 141/12/65 143/12/65 142/13/65
f 142/13/66 143/12/66 145/12/66 144/13/66
f 144/13/67 145/12/67 147/12/67 146/13/67
f 146/13/68 147/12/68 149/12/68 148/13/68
f 148/13/69 149/12/69 151/12/69 150/13/69
f 150/13/70 151/12/70 153/12/70 152/13/70
f 152/13/71 153/12/71 155/12/71 154/13/71
f 154/13/72 155/12/72 157/12/72 156/13/72
f 156/13/73 157/12/73 159/12/73 158/13/73
f 158/13/74 159/12/74 161/12/74 160/13/74
f 160/13/75 161/12/75 163/12/75 162/13/75
f 162/13/76 163/12/76 165/12/76 164/13/76
f 164/13/77 165/12/77 167/12/77 166/13/77
f 166/13/78 167/12/78 169/12/78 168/13/78
f 168/13/79 169/12/79 171/12/79 170/13/79
f 170/13/80 171/12/80 173/12/80 172/13/80
f 172/13/81 173/12/81 175/12/81 174/13/81
f 174/13/82 175/12/82 177/12/82 176/13/82
f 176/13/83 177/12/83 179/12/83 178/13/83
f 178/13/84 179/12/84 181/12/84 180/13/84
f 180/13/85 181/12/85 183/12/85 182/13/85
f 182/13/86 183/12/86 185/12/86 184/13/86
f 184/13/87 185/12/87 187/12/87 186/13/87
f 186/13/88 187/12/88 189/12/88 188/13/88
f 188/13/89 189/12/89 191/12/89 190/13/89
f 190/13/90 191/12/90 193/12/90 192/13/90
f 192/13/91 193/12/91 195/12/91 194/13/91
f 194/13/92 195/12/92 197/12/92 196/13/92
f 196/13/93 197/12/93 199/12/93 198/13/93
f 198/13/94 199/12/94 201/12/94 200/13/94
f 200/13/95 201/12/95 203/12/95 202/13/95
f 202/13/96 203/12/96 205/12/96 204/13/96
f 204/13/97 205/12/97 207/12/97 206/13/97
f 206/13/98 207/12/98 209/12/98 208/13/98
f 208/13/99 209/12/99 211/12/99 210/13/99
f 210/13/100 211/12/100 213/12/100 212/13/100
f 212/13/101 213/12/101 215/12/101 214/13/101
f 214/13/102 215/12/102 27/12/102 26/13/102
l 17 19
l 19 20
l 20 21
l 21 22
l 22 23
l 23 24
l 24 25
